<svg width="63" height="69" viewBox="0 0 63 69" fill="none" xmlns="http://www.w3.org/2000/svg">
<path d="M63 17.8216L58.5221 17.8216C57.9341 17.8216 57.3518 17.9311 56.8084 18.1437C56.2654 18.3564 55.7717 18.668 55.3556 19.0609C54.9399 19.4541 54.6101 19.9206 54.3851 20.4337C54.1601 20.9472 54.0443 21.4975 54.0443 22.0532L54.0443 38.9805C54.0443 44.5919 51.6855 49.9735 47.4867 53.9414C43.2879 57.9093 37.5934 60.1384 31.6554 60.1385C28.7152 60.1385 25.8038 59.5912 23.0875 58.5279C20.3711 57.4646 17.9029 55.9061 15.8239 53.9414C13.7449 51.9767 12.0958 49.6443 10.9706 47.0773C9.8455 44.5103 9.26645 41.759 9.26648 38.9805L9.26648 22.0545C9.26665 21.4988 9.15096 20.9482 8.92602 20.4347C8.70106 19.9212 8.37125 19.4544 7.95543 19.0615C7.53958 18.6683 7.04589 18.3567 6.50253 18.1437C5.95917 17.9311 5.37679 17.8216 4.78863 17.8216L0.310788 17.8216L0.310789 38.9796C0.31079 42.8694 1.12154 46.7212 2.69676 50.3149C4.27197 53.9087 6.58082 57.174 9.49141 59.9245C12.402 62.6751 15.8575 64.8569 19.6604 66.3455C23.4632 67.834 27.5392 68.6001 31.6554 68.6001C39.9683 68.6001 47.941 65.4794 53.8193 59.9245C59.6975 54.3696 63 46.8355 63 38.9796L63 17.8216Z" fill="url(#paint0_linear_2294_284)"/>
<path d="M31.6554 51.6759C35.2181 51.6759 38.6348 50.3384 41.1538 47.9578C43.6731 45.5772 45.0882 42.3484 45.0882 38.9817L45.0882 17.8221C45.0882 15.5775 46.0319 13.4252 47.7113 11.8381C49.3908 10.251 51.6687 9.35926 54.0439 9.35926L62.9996 9.35926L62.9996 0.896071L54.0443 0.896071C49.2941 0.896071 44.7383 2.67928 41.3791 5.85345C38.0202 9.02795 36.1332 13.3332 36.1332 17.8221L36.1332 38.9811C36.1332 40.1034 35.6614 41.1797 34.8218 41.9733C33.9819 42.7668 32.843 43.2127 31.6554 43.2127C30.4678 43.2127 29.3288 42.7668 28.489 41.9733C27.6493 41.1797 27.1775 40.1034 27.1775 38.9811L27.1775 17.8221C27.1775 13.3332 25.2905 9.02795 21.9315 5.85345C18.5725 2.67928 14.0168 0.896072 9.26648 0.896072L0.310788 0.896072L0.310789 9.36053L9.26648 9.36053C11.6413 9.36053 13.919 10.252 15.5984 11.8387C17.2778 13.4255 18.2215 15.5778 18.2218 17.8221L18.2218 38.9811C18.2217 40.6482 18.5691 42.299 19.2442 43.8392C19.9193 45.3795 20.9088 46.779 22.1562 47.9578C23.4037 49.1366 24.8846 50.0717 26.5145 50.7097C28.1444 51.3476 29.8912 51.6759 31.6554 51.6759Z" fill="url(#paint1_linear_2294_284)"/>
<defs>
<linearGradient id="paint0_linear_2294_284" x1="31.6554" y1="60.9326" x2="31.6554" y2="-4.21637" gradientUnits="userSpaceOnUse">
<stop stop-color="#F54A48"/>
<stop offset="1" stop-color="#FA982F"/>
</linearGradient>
<linearGradient id="paint1_linear_2294_284" x1="31.6552" y1="60.9685" x2="31.6552" y2="-4.23268" gradientUnits="userSpaceOnUse">
<stop stop-color="#F54A48"/>
<stop offset="1" stop-color="#FA982F"/>
</linearGradient>
</defs>
</svg>
